<?xml version="1.0" encoding="UTF-8" standalone="no"?>
<!DOCTYPE svg PUBLIC "-//W3C//DTD SVG 1.1//EN" "http://www.w3.org/Graphics/SVG/1.1/DTD/svg11.dtd">
<svg width="100%" height="100%" viewBox="0 0 510 437" version="1.1" xmlns="http://www.w3.org/2000/svg" xmlns:xlink="http://www.w3.org/1999/xlink" xml:space="preserve" xmlns:serif="http://www.serif.com/" style="fill-rule:evenodd;clip-rule:evenodd;stroke-linejoin:round;stroke-miterlimit:2;">
    <g transform="matrix(1,0,0,1,-4374.76,-203.877)">
        <g id="path4096" transform="matrix(2.59341,0,0,2.59341,3767.95,-367.926)">
            <path d="M245.739,255.886C245.612,255.313 245.752,254.713 246.121,254.257C246.489,253.8 247.045,253.536 247.632,253.539C267.655,253.653 405.849,254.433 427.66,254.557C428.305,254.56 428.906,254.886 429.26,255.425C429.615,255.964 429.676,256.645 429.424,257.238C421.975,274.774 380.294,372.898 380.294,372.898L266.157,347.767C266.157,347.767 248.981,270.475 245.739,255.886Z" style="fill:rgb(199,136,248);"/>
        </g>
        <g id="path4098" transform="matrix(2.59341,0,0,2.59341,3767.95,-367.926)">
            <path d="M353.565,270.094L245.215,269.482C245.215,269.482 263.459,351.579 265.891,362.524C266.054,363.256 266.626,363.827 267.358,363.988C278.642,366.473 365.936,385.693 378.731,388.51C379.637,388.71 380.557,388.236 380.92,387.381C386.146,375.077 422.514,289.461 429.423,273.194C429.676,272.601 429.614,271.92 429.26,271.381C428.905,270.842 428.305,270.516 427.66,270.513C418.227,270.459 388.991,270.295 388.991,270.295L353.565,270.094Z" style="fill:rgb(158,57,228);"/>
        </g>
        <g id="path4100" transform="matrix(2.59341,0,0,2.59341,3767.95,-367.926)">
            <path d="M418.19,263.964C418.442,263.371 418.38,262.69 418.026,262.151C417.671,261.612 417.071,261.286 416.426,261.283C394.615,261.16 256.421,260.38 236.398,260.267C235.812,260.263 235.255,260.527 234.887,260.984C234.518,261.441 234.378,262.04 234.505,262.613C237.509,276.128 252.47,343.456 254.656,353.294C254.818,354.026 255.391,354.597 256.123,354.758C267.407,357.243 354.702,376.463 367.497,379.28C368.403,379.48 369.323,379.006 369.686,378.151C372.21,372.209 411.897,278.779 418.19,263.964Z" style="fill:rgb(178,91,241);"/>
        </g>
        <g id="path4286" transform="matrix(2.59341,0,0,2.59341,3764.66,-339.398)">
            <path d="M371.308,211.201C371.65,210.237 372.684,209.707 373.666,209.993C380.038,211.853 401.989,218.258 408.93,220.284C409.465,220.44 409.906,220.819 410.14,221.325C410.374,221.83 410.378,222.412 410.151,222.921C403.487,237.84 361.968,330.79 356.3,343.479C355.927,344.314 355.019,344.772 354.126,344.575C343.217,342.173 277.518,327.708 266.76,325.339C265.887,325.147 265.261,324.38 265.247,323.486C265.161,317.973 264.868,299.034 264.76,292.026C264.75,291.411 265.035,290.828 265.526,290.458C266.016,290.087 266.654,289.973 267.243,290.15C278.583,293.562 324.684,307.435 334.293,310.326C335.278,310.623 336.323,310.093 336.666,309.123C341.001,296.868 366.99,223.408 371.308,211.201Z" style="fill:rgb(223,167,255);"/>
        </g>
    </g>
</svg>
